<mxfile host="Electron" agent="Mozilla/5.0 (Windows NT 10.0; Win64; x64) AppleWebKit/537.36 (KHTML, like Gecko) draw.io/26.0.16 Chrome/132.0.6834.196 Electron/34.2.0 Safari/537.36" version="26.0.16">
  <diagram id="C5RBs43oDa-KdzZeNtuy" name="Page-1">
    <mxGraphModel dx="1122" dy="540" grid="1" gridSize="10" guides="1" tooltips="1" connect="1" arrows="1" fold="1" page="1" pageScale="1" pageWidth="827" pageHeight="1169" math="0" shadow="0">
      <root>
        <mxCell id="WIyWlLk6GJQsqaUBKTNV-0" />
        <mxCell id="WIyWlLk6GJQsqaUBKTNV-1" parent="WIyWlLk6GJQsqaUBKTNV-0" />
        <mxCell id="WIyWlLk6GJQsqaUBKTNV-2" value="" style="rounded=0;html=1;jettySize=auto;orthogonalLoop=1;fontSize=11;endArrow=block;endFill=0;endSize=8;strokeWidth=1;shadow=0;labelBackgroundColor=none;edgeStyle=orthogonalEdgeStyle;" parent="WIyWlLk6GJQsqaUBKTNV-1" source="WIyWlLk6GJQsqaUBKTNV-3" target="WIyWlLk6GJQsqaUBKTNV-6" edge="1">
          <mxGeometry relative="1" as="geometry" />
        </mxCell>
        <mxCell id="WIyWlLk6GJQsqaUBKTNV-3" value="Входная стркоа" style="rounded=1;whiteSpace=wrap;html=1;fontSize=12;glass=0;strokeWidth=1;shadow=0;" parent="WIyWlLk6GJQsqaUBKTNV-1" vertex="1">
          <mxGeometry x="520" y="80" width="120" height="40" as="geometry" />
        </mxCell>
        <mxCell id="ntsa4SX4_YiylAC2N45s-1" style="edgeStyle=orthogonalEdgeStyle;rounded=0;orthogonalLoop=1;jettySize=auto;html=1;exitX=0;exitY=0.5;exitDx=0;exitDy=0;entryX=1;entryY=0.5;entryDx=0;entryDy=0;" edge="1" parent="WIyWlLk6GJQsqaUBKTNV-1" source="WIyWlLk6GJQsqaUBKTNV-6" target="ntsa4SX4_YiylAC2N45s-0">
          <mxGeometry relative="1" as="geometry" />
        </mxCell>
        <mxCell id="ntsa4SX4_YiylAC2N45s-4" value="Да" style="edgeLabel;html=1;align=center;verticalAlign=middle;resizable=0;points=[];" vertex="1" connectable="0" parent="ntsa4SX4_YiylAC2N45s-1">
          <mxGeometry x="0.168" y="1" relative="1" as="geometry">
            <mxPoint x="9" y="-11" as="offset" />
          </mxGeometry>
        </mxCell>
        <mxCell id="ntsa4SX4_YiylAC2N45s-3" style="edgeStyle=orthogonalEdgeStyle;rounded=0;orthogonalLoop=1;jettySize=auto;html=1;exitX=1;exitY=0.5;exitDx=0;exitDy=0;entryX=0;entryY=0.5;entryDx=0;entryDy=0;" edge="1" parent="WIyWlLk6GJQsqaUBKTNV-1" source="WIyWlLk6GJQsqaUBKTNV-6" target="WIyWlLk6GJQsqaUBKTNV-7">
          <mxGeometry relative="1" as="geometry" />
        </mxCell>
        <mxCell id="ntsa4SX4_YiylAC2N45s-7" value="Нет" style="edgeLabel;html=1;align=center;verticalAlign=middle;resizable=0;points=[];" vertex="1" connectable="0" parent="ntsa4SX4_YiylAC2N45s-3">
          <mxGeometry x="-0.3" y="-2" relative="1" as="geometry">
            <mxPoint y="-12" as="offset" />
          </mxGeometry>
        </mxCell>
        <mxCell id="WIyWlLk6GJQsqaUBKTNV-6" value="Начинается с а?" style="rhombus;whiteSpace=wrap;html=1;shadow=0;fontFamily=Helvetica;fontSize=12;align=center;strokeWidth=1;spacing=6;spacingTop=-4;" parent="WIyWlLk6GJQsqaUBKTNV-1" vertex="1">
          <mxGeometry x="520" y="165" width="120" height="110" as="geometry" />
        </mxCell>
        <mxCell id="ntsa4SX4_YiylAC2N45s-30" style="edgeStyle=orthogonalEdgeStyle;rounded=0;orthogonalLoop=1;jettySize=auto;html=1;exitX=0.5;exitY=1;exitDx=0;exitDy=0;entryX=0.5;entryY=0;entryDx=0;entryDy=0;" edge="1" parent="WIyWlLk6GJQsqaUBKTNV-1" source="WIyWlLk6GJQsqaUBKTNV-7" target="ntsa4SX4_YiylAC2N45s-29">
          <mxGeometry relative="1" as="geometry" />
        </mxCell>
        <mxCell id="WIyWlLk6GJQsqaUBKTNV-7" value="len%2 != 0,&lt;br&gt;добавить b || c || a" style="rounded=1;whiteSpace=wrap;html=1;fontSize=12;glass=0;strokeWidth=1;shadow=0;" parent="WIyWlLk6GJQsqaUBKTNV-1" vertex="1">
          <mxGeometry x="920" y="200" width="120" height="40" as="geometry" />
        </mxCell>
        <mxCell id="ntsa4SX4_YiylAC2N45s-12" style="edgeStyle=orthogonalEdgeStyle;rounded=0;orthogonalLoop=1;jettySize=auto;html=1;exitX=0.5;exitY=1;exitDx=0;exitDy=0;entryX=0.5;entryY=0;entryDx=0;entryDy=0;" edge="1" parent="WIyWlLk6GJQsqaUBKTNV-1" source="ntsa4SX4_YiylAC2N45s-0" target="ntsa4SX4_YiylAC2N45s-11">
          <mxGeometry relative="1" as="geometry" />
        </mxCell>
        <mxCell id="ntsa4SX4_YiylAC2N45s-0" value="len%2 != 0, &lt;br&gt;добавить b || c" style="rounded=1;whiteSpace=wrap;html=1;fontSize=12;glass=0;strokeWidth=1;shadow=0;" vertex="1" parent="WIyWlLk6GJQsqaUBKTNV-1">
          <mxGeometry x="210" y="200" width="120" height="40" as="geometry" />
        </mxCell>
        <mxCell id="ntsa4SX4_YiylAC2N45s-14" style="edgeStyle=orthogonalEdgeStyle;rounded=0;orthogonalLoop=1;jettySize=auto;html=1;exitX=0;exitY=0.5;exitDx=0;exitDy=0;entryX=1;entryY=0.5;entryDx=0;entryDy=0;" edge="1" parent="WIyWlLk6GJQsqaUBKTNV-1" source="ntsa4SX4_YiylAC2N45s-11" target="ntsa4SX4_YiylAC2N45s-13">
          <mxGeometry relative="1" as="geometry" />
        </mxCell>
        <mxCell id="ntsa4SX4_YiylAC2N45s-16" value="Да" style="edgeLabel;html=1;align=center;verticalAlign=middle;resizable=0;points=[];" vertex="1" connectable="0" parent="ntsa4SX4_YiylAC2N45s-14">
          <mxGeometry x="-0.0333" y="1" relative="1" as="geometry">
            <mxPoint x="4" y="-16" as="offset" />
          </mxGeometry>
        </mxCell>
        <mxCell id="ntsa4SX4_YiylAC2N45s-17" style="edgeStyle=orthogonalEdgeStyle;rounded=0;orthogonalLoop=1;jettySize=auto;html=1;exitX=1;exitY=0.5;exitDx=0;exitDy=0;" edge="1" parent="WIyWlLk6GJQsqaUBKTNV-1" source="ntsa4SX4_YiylAC2N45s-11">
          <mxGeometry relative="1" as="geometry">
            <mxPoint x="380" y="334.9999999999999" as="targetPoint" />
          </mxGeometry>
        </mxCell>
        <mxCell id="ntsa4SX4_YiylAC2N45s-18" value="Нет" style="edgeLabel;html=1;align=center;verticalAlign=middle;resizable=0;points=[];" vertex="1" connectable="0" parent="ntsa4SX4_YiylAC2N45s-17">
          <mxGeometry x="-0.2699" y="2" relative="1" as="geometry">
            <mxPoint x="-8" y="-13" as="offset" />
          </mxGeometry>
        </mxCell>
        <mxCell id="ntsa4SX4_YiylAC2N45s-11" value="Конец строки?" style="rhombus;whiteSpace=wrap;html=1;shadow=0;fontFamily=Helvetica;fontSize=12;align=center;strokeWidth=1;spacing=6;spacingTop=-4;" vertex="1" parent="WIyWlLk6GJQsqaUBKTNV-1">
          <mxGeometry x="210" y="280" width="120" height="110" as="geometry" />
        </mxCell>
        <mxCell id="ntsa4SX4_YiylAC2N45s-13" value="Выход" style="rounded=1;whiteSpace=wrap;html=1;fontSize=12;glass=0;strokeWidth=1;shadow=0;" vertex="1" parent="WIyWlLk6GJQsqaUBKTNV-1">
          <mxGeometry x="60" y="315" width="120" height="40" as="geometry" />
        </mxCell>
        <mxCell id="ntsa4SX4_YiylAC2N45s-21" style="edgeStyle=orthogonalEdgeStyle;rounded=0;orthogonalLoop=1;jettySize=auto;html=1;exitX=0.5;exitY=1;exitDx=0;exitDy=0;entryX=0.5;entryY=0;entryDx=0;entryDy=0;" edge="1" parent="WIyWlLk6GJQsqaUBKTNV-1" source="ntsa4SX4_YiylAC2N45s-19" target="ntsa4SX4_YiylAC2N45s-20">
          <mxGeometry relative="1" as="geometry" />
        </mxCell>
        <mxCell id="ntsa4SX4_YiylAC2N45s-19" value="Добавить b || c =&amp;gt;&lt;br&gt;len%2 != 0" style="rounded=1;whiteSpace=wrap;html=1;fontSize=12;glass=0;strokeWidth=1;shadow=0;" vertex="1" parent="WIyWlLk6GJQsqaUBKTNV-1">
          <mxGeometry x="360" y="315" width="120" height="40" as="geometry" />
        </mxCell>
        <mxCell id="ntsa4SX4_YiylAC2N45s-23" style="edgeStyle=orthogonalEdgeStyle;rounded=0;orthogonalLoop=1;jettySize=auto;html=1;exitX=0;exitY=0.5;exitDx=0;exitDy=0;entryX=0.5;entryY=1;entryDx=0;entryDy=0;" edge="1" parent="WIyWlLk6GJQsqaUBKTNV-1" source="ntsa4SX4_YiylAC2N45s-20" target="ntsa4SX4_YiylAC2N45s-22">
          <mxGeometry relative="1" as="geometry" />
        </mxCell>
        <mxCell id="ntsa4SX4_YiylAC2N45s-20" value="Добавить b || c =&amp;gt;&lt;br&gt;len%2 = 0" style="rounded=1;whiteSpace=wrap;html=1;fontSize=12;glass=0;strokeWidth=1;shadow=0;" vertex="1" parent="WIyWlLk6GJQsqaUBKTNV-1">
          <mxGeometry x="360" y="520" width="120" height="40" as="geometry" />
        </mxCell>
        <mxCell id="ntsa4SX4_YiylAC2N45s-25" style="edgeStyle=orthogonalEdgeStyle;rounded=0;orthogonalLoop=1;jettySize=auto;html=1;exitX=0;exitY=0.5;exitDx=0;exitDy=0;entryX=0.5;entryY=1;entryDx=0;entryDy=0;" edge="1" parent="WIyWlLk6GJQsqaUBKTNV-1" source="ntsa4SX4_YiylAC2N45s-22" target="ntsa4SX4_YiylAC2N45s-13">
          <mxGeometry relative="1" as="geometry" />
        </mxCell>
        <mxCell id="ntsa4SX4_YiylAC2N45s-26" value="Да" style="edgeLabel;html=1;align=center;verticalAlign=middle;resizable=0;points=[];" vertex="1" connectable="0" parent="ntsa4SX4_YiylAC2N45s-25">
          <mxGeometry x="-0.6118" y="-4" relative="1" as="geometry">
            <mxPoint x="19" y="-11" as="offset" />
          </mxGeometry>
        </mxCell>
        <mxCell id="ntsa4SX4_YiylAC2N45s-22" value="Конец строки?" style="rhombus;whiteSpace=wrap;html=1;shadow=0;fontFamily=Helvetica;fontSize=12;align=center;strokeWidth=1;spacing=6;spacingTop=-4;" vertex="1" parent="WIyWlLk6GJQsqaUBKTNV-1">
          <mxGeometry x="210" y="410" width="120" height="110" as="geometry" />
        </mxCell>
        <mxCell id="ntsa4SX4_YiylAC2N45s-24" style="edgeStyle=orthogonalEdgeStyle;rounded=0;orthogonalLoop=1;jettySize=auto;html=1;exitX=1;exitY=0.5;exitDx=0;exitDy=0;entryX=0.161;entryY=0.986;entryDx=0;entryDy=0;entryPerimeter=0;" edge="1" parent="WIyWlLk6GJQsqaUBKTNV-1" source="ntsa4SX4_YiylAC2N45s-22" target="ntsa4SX4_YiylAC2N45s-19">
          <mxGeometry relative="1" as="geometry">
            <Array as="points">
              <mxPoint x="379" y="465" />
            </Array>
          </mxGeometry>
        </mxCell>
        <mxCell id="ntsa4SX4_YiylAC2N45s-27" value="Нет" style="edgeLabel;html=1;align=center;verticalAlign=middle;resizable=0;points=[];" vertex="1" connectable="0" parent="ntsa4SX4_YiylAC2N45s-24">
          <mxGeometry x="-0.5529" y="-1" relative="1" as="geometry">
            <mxPoint x="-15" y="-16" as="offset" />
          </mxGeometry>
        </mxCell>
        <mxCell id="ntsa4SX4_YiylAC2N45s-33" style="edgeStyle=orthogonalEdgeStyle;rounded=0;orthogonalLoop=1;jettySize=auto;html=1;exitX=0;exitY=0.5;exitDx=0;exitDy=0;entryX=1;entryY=0.5;entryDx=0;entryDy=0;" edge="1" parent="WIyWlLk6GJQsqaUBKTNV-1" source="ntsa4SX4_YiylAC2N45s-29">
          <mxGeometry relative="1" as="geometry">
            <mxPoint x="890" y="335" as="targetPoint" />
          </mxGeometry>
        </mxCell>
        <mxCell id="ntsa4SX4_YiylAC2N45s-36" value="Да" style="edgeLabel;html=1;align=center;verticalAlign=middle;resizable=0;points=[];" vertex="1" connectable="0" parent="ntsa4SX4_YiylAC2N45s-33">
          <mxGeometry x="-0.4752" y="1" relative="1" as="geometry">
            <mxPoint y="-11" as="offset" />
          </mxGeometry>
        </mxCell>
        <mxCell id="ntsa4SX4_YiylAC2N45s-35" style="edgeStyle=orthogonalEdgeStyle;rounded=0;orthogonalLoop=1;jettySize=auto;html=1;exitX=1;exitY=0.5;exitDx=0;exitDy=0;entryX=0;entryY=0.5;entryDx=0;entryDy=0;" edge="1" parent="WIyWlLk6GJQsqaUBKTNV-1" source="ntsa4SX4_YiylAC2N45s-29" target="ntsa4SX4_YiylAC2N45s-34">
          <mxGeometry relative="1" as="geometry" />
        </mxCell>
        <mxCell id="ntsa4SX4_YiylAC2N45s-37" value="Нет" style="edgeLabel;html=1;align=center;verticalAlign=middle;resizable=0;points=[];" vertex="1" connectable="0" parent="ntsa4SX4_YiylAC2N45s-35">
          <mxGeometry x="-0.2158" relative="1" as="geometry">
            <mxPoint y="-10" as="offset" />
          </mxGeometry>
        </mxCell>
        <mxCell id="ntsa4SX4_YiylAC2N45s-29" value="Добавили a?" style="rhombus;whiteSpace=wrap;html=1;shadow=0;fontFamily=Helvetica;fontSize=12;align=center;strokeWidth=1;spacing=6;spacingTop=-4;" vertex="1" parent="WIyWlLk6GJQsqaUBKTNV-1">
          <mxGeometry x="920" y="280" width="120" height="110" as="geometry" />
        </mxCell>
        <mxCell id="ntsa4SX4_YiylAC2N45s-34" value="len%2 = 0,&lt;br&gt;добавить b || c" style="rounded=1;whiteSpace=wrap;html=1;fontSize=12;glass=0;strokeWidth=1;shadow=0;" vertex="1" parent="WIyWlLk6GJQsqaUBKTNV-1">
          <mxGeometry x="1070" y="315" width="120" height="40" as="geometry" />
        </mxCell>
        <mxCell id="ntsa4SX4_YiylAC2N45s-41" style="edgeStyle=orthogonalEdgeStyle;rounded=0;orthogonalLoop=1;jettySize=auto;html=1;exitX=0;exitY=0.5;exitDx=0;exitDy=0;entryX=1;entryY=0.5;entryDx=0;entryDy=0;" edge="1" parent="WIyWlLk6GJQsqaUBKTNV-1" source="ntsa4SX4_YiylAC2N45s-38" target="ntsa4SX4_YiylAC2N45s-40">
          <mxGeometry relative="1" as="geometry" />
        </mxCell>
        <mxCell id="ntsa4SX4_YiylAC2N45s-42" value="Да" style="edgeLabel;html=1;align=center;verticalAlign=middle;resizable=0;points=[];" vertex="1" connectable="0" parent="ntsa4SX4_YiylAC2N45s-41">
          <mxGeometry x="-0.0725" y="1" relative="1" as="geometry">
            <mxPoint x="4" y="-16" as="offset" />
          </mxGeometry>
        </mxCell>
        <mxCell id="ntsa4SX4_YiylAC2N45s-44" style="edgeStyle=orthogonalEdgeStyle;rounded=0;orthogonalLoop=1;jettySize=auto;html=1;exitX=0.5;exitY=1;exitDx=0;exitDy=0;entryX=0.5;entryY=0;entryDx=0;entryDy=0;" edge="1" parent="WIyWlLk6GJQsqaUBKTNV-1" source="ntsa4SX4_YiylAC2N45s-38" target="ntsa4SX4_YiylAC2N45s-43">
          <mxGeometry relative="1" as="geometry" />
        </mxCell>
        <mxCell id="ntsa4SX4_YiylAC2N45s-45" value="Нет" style="edgeLabel;html=1;align=center;verticalAlign=middle;resizable=0;points=[];" vertex="1" connectable="0" parent="ntsa4SX4_YiylAC2N45s-44">
          <mxGeometry x="-0.2391" y="2" relative="1" as="geometry">
            <mxPoint x="-22" as="offset" />
          </mxGeometry>
        </mxCell>
        <mxCell id="ntsa4SX4_YiylAC2N45s-38" value="Конец строки?" style="rhombus;whiteSpace=wrap;html=1;shadow=0;fontFamily=Helvetica;fontSize=12;align=center;strokeWidth=1;spacing=6;spacingTop=-4;" vertex="1" parent="WIyWlLk6GJQsqaUBKTNV-1">
          <mxGeometry x="770" y="280" width="120" height="110" as="geometry" />
        </mxCell>
        <mxCell id="ntsa4SX4_YiylAC2N45s-40" value="Выход" style="rounded=1;whiteSpace=wrap;html=1;fontSize=12;glass=0;strokeWidth=1;shadow=0;" vertex="1" parent="WIyWlLk6GJQsqaUBKTNV-1">
          <mxGeometry x="620" y="315" width="120" height="40" as="geometry" />
        </mxCell>
        <mxCell id="ntsa4SX4_YiylAC2N45s-43" value="добавить b || c =&amp;gt;&lt;br&gt;len%2 != 0" style="rounded=1;whiteSpace=wrap;html=1;fontSize=12;glass=0;strokeWidth=1;shadow=0;" vertex="1" parent="WIyWlLk6GJQsqaUBKTNV-1">
          <mxGeometry x="770" y="430" width="120" height="40" as="geometry" />
        </mxCell>
      </root>
    </mxGraphModel>
  </diagram>
</mxfile>
